<svg width="9" height="12" viewBox="0 0 9 12" fill="none" xmlns="http://www.w3.org/2000/svg">
<path d="M0.91391 11.2947V0.587938H2.58695L2.66477 1.64298C2.97604 1.21315 3.36512 0.939619 3.7931 0.744239C4.22109 0.54886 4.68799 0.470703 5.1938 0.470703C5.93305 0.470703 6.55557 0.666092 7.06138 1.01778C7.56718 1.36946 7.91736 1.83836 8.18972 2.46358C8.46208 3.08879 8.5788 3.75309 8.5788 4.53461C8.5788 5.31613 8.46208 5.98041 8.18972 6.56655C7.91736 7.15269 7.56719 7.66068 7.02248 8.01237C6.51667 8.36405 5.85524 8.55943 5.03817 8.55943C4.2211 8.55943 4.33782 8.52035 4.02655 8.4422C3.71529 8.36405 3.48184 8.24681 3.24839 8.09051C3.01495 7.93421 2.8204 7.77791 2.66477 7.62161V11.3338H0.875H0.91391V11.2947ZM4.80472 6.87917C5.31052 6.87917 5.6996 6.76193 5.97196 6.52747C6.24431 6.29302 6.47776 6.01949 6.59449 5.66781C6.71121 5.31613 6.78903 4.92537 6.78903 4.49553C6.78903 4.0657 6.71121 3.67494 6.59449 3.32325C6.47776 2.97157 6.24431 2.65896 5.97196 2.4245C5.6996 2.19004 5.27161 2.07282 4.80472 2.07282C4.33782 2.07282 3.98765 2.19004 3.67638 2.4245C3.36512 2.65896 3.13166 2.93249 2.97603 3.32325C2.8204 3.71401 2.74259 4.10477 2.74259 4.49553C2.74259 4.88629 2.8204 5.31613 2.97603 5.70689C3.13166 6.09765 3.36512 6.37117 3.67638 6.56655C3.98765 6.76193 4.37673 6.87917 4.88254 6.87917H4.80472Z" fill="black"/>
</svg>
