<svg width="9" height="12" viewBox="0 0 9 12" fill="none" xmlns="http://www.w3.org/2000/svg">
<path d="M0.80843 11.199V0.492229H2.48147L2.55929 1.54728C2.87056 1.11744 3.25965 0.843916 3.68763 0.648536C4.11562 0.453157 4.58251 0.375 5.08832 0.375C5.82757 0.375 6.45009 0.570383 6.9559 0.922067C7.4617 1.27375 7.81188 1.74266 8.08424 2.36787C8.3566 2.99309 8.47332 3.65738 8.47332 4.4389C8.47332 5.22042 8.3566 5.88471 8.08424 6.47085C7.81188 7.09606 7.46171 7.56497 6.917 7.91666C6.37229 8.26834 5.74977 8.46372 4.9327 8.46372C4.11563 8.46372 4.23234 8.42465 3.92107 8.34649C3.60981 8.26834 3.37636 8.15111 3.14291 7.99481C2.90946 7.8385 2.71492 7.6822 2.55929 7.5259V11.2381H0.769531L0.80843 11.199ZM4.69923 6.78346C5.20504 6.78346 5.59412 6.66622 5.86648 6.43177C6.13883 6.19731 6.37229 5.92378 6.48902 5.5721C6.60574 5.22042 6.68356 4.82966 6.68356 4.4389C6.68356 4.04814 6.60574 3.61831 6.48902 3.26662C6.37229 2.91494 6.13884 2.60233 5.82758 2.36787C5.51631 2.13342 5.12723 2.01619 4.66034 2.01619C4.19344 2.01619 3.84326 2.13342 3.53199 2.36787C3.22073 2.60233 2.98729 2.87586 2.83165 3.26662C2.67602 3.61831 2.59821 4.00907 2.59821 4.4389C2.59821 4.86874 2.67602 5.25949 2.83165 5.65025C2.98729 6.04101 3.22073 6.31455 3.53199 6.50993C3.84326 6.70531 4.23235 6.82253 4.73816 6.82253L4.69923 6.78346Z" fill="black"/>
</svg>
