<svg width="8" height="9" viewBox="0 0 8 9" fill="none" xmlns="http://www.w3.org/2000/svg">
<path d="M3.94236 8.42661C3.12529 8.42661 2.46385 8.2703 1.91914 7.91862C1.37442 7.56694 0.946453 7.09803 0.674097 6.51189C0.40174 5.88667 0.246094 5.22238 0.246094 4.40179C0.246094 3.58119 0.40174 2.9169 0.674097 2.29169C0.946453 1.66647 1.41334 1.19756 1.95806 0.845879C2.54168 0.494196 3.20311 0.337891 4.02018 0.337891C4.83725 0.337891 5.1485 0.45512 5.6154 0.650499C6.0823 0.845879 6.47139 1.15848 6.74374 1.54924C7.0161 1.94 7.21065 2.44799 7.28847 3.03413H5.5376C5.42088 2.64337 5.22634 2.36984 4.95398 2.21354C4.68163 2.05723 4.37036 1.94 3.98128 1.94C3.5922 1.94 3.0864 2.05723 2.81404 2.29169C2.54168 2.52614 2.30822 2.83875 2.1915 3.19044C2.07477 3.54212 1.99696 3.93288 1.99696 4.32363C1.99696 4.71439 2.07477 5.14423 2.1915 5.49591C2.30822 5.8476 2.54167 6.1602 2.85294 6.35558C3.1642 6.59004 3.51438 6.66819 3.98128 6.66819C4.44818 6.66819 4.68162 6.59004 4.99288 6.43373C5.30414 6.27743 5.49869 6.0039 5.5765 5.61314H7.40518C7.32737 6.23836 7.13283 6.70727 6.82156 7.1371C6.5103 7.56694 6.08231 7.84047 5.5765 8.03585C5.0707 8.23123 4.52598 8.34846 3.94236 8.34846V8.42661Z" fill="black"/>
</svg>
