<svg width="8" height="12" viewBox="0 0 8 12" fill="none" xmlns="http://www.w3.org/2000/svg">
<path d="M0.117188 11.3084V3.49326H1.90697V8.57313C1.98479 8.4559 2.02369 8.33868 2.14041 8.22145C2.21823 8.10422 2.33494 7.987 2.37385 7.90884L5.71996 3.49326H7.31518V11.3084H5.52542V6.26766C5.4476 6.38488 5.36977 6.50211 5.29195 6.61934C5.21414 6.73656 5.13633 6.85379 5.05852 6.93195L1.75133 11.2694H0.117188V11.3084ZM3.85237 2.71174C2.9964 2.71174 2.37385 2.51636 1.86805 2.1256C1.36225 1.73485 1.16772 1.14871 1.12881 0.367188H2.68513C2.68513 0.718871 2.80185 0.992402 2.99639 1.14871C3.19093 1.30501 3.5022 1.38316 3.85237 1.38316C4.20255 1.38316 4.47488 1.30501 4.70833 1.14871C4.94178 0.992402 5.01962 0.718871 5.01962 0.367188H6.57594C6.57594 0.875175 6.4592 1.30501 6.22576 1.65669C5.99231 2.00838 5.68103 2.28191 5.29195 2.43821C4.90287 2.59452 4.39709 2.71174 3.85237 2.71174Z" fill="black"/>
</svg>
