<svg width="29" height="32" viewBox="0 0 29 32" fill="none" xmlns="http://www.w3.org/2000/svg">
<path d="M0.835785 31.6534V25.7139C1.84739 25.7139 2.74228 25.5185 3.3259 25.1277C3.90952 24.737 4.45424 24.229 4.7655 23.5256C5.07677 22.8223 5.27131 21.8063 5.42694 20.8685C5.58257 20.0479 5.62147 19.2273 5.66038 18.2894C5.7382 17.3516 5.66038 16.4138 5.66038 15.5151V13.2096L5.7771 0.197294L28.3049 0.119141V31.419H21.9629V5.98053L11.7301 6.05868L11.6522 13.5222C11.6522 15.7886 11.5744 17.9378 11.4966 19.8916C11.4188 21.8454 11.1853 23.6819 10.7962 25.245C10.4072 26.808 9.1232 29.9341 5.46584 30.8719C4.22078 31.1845 2.74228 31.5753 0.796875 31.5753V31.6534H0.835785Z" fill="black"/>
</svg>
