<svg width="13" height="14" viewBox="0 0 13 14" fill="none" xmlns="http://www.w3.org/2000/svg">
<path d="M12.3319 9.87038V11.6204C12.3325 11.7828 12.2993 11.9436 12.2342 12.0925C12.1691 12.2414 12.0736 12.375 11.9539 12.4848C11.8342 12.5946 11.6929 12.6782 11.539 12.7303C11.3851 12.7823 11.222 12.8017 11.0602 12.787C9.26519 12.592 7.54095 11.9786 6.02604 10.9962C4.6166 10.1006 3.42165 8.90565 2.52604 7.49622C1.54019 5.97442 0.926679 4.2418 0.735203 2.43872C0.720626 2.2774 0.739797 2.11483 0.791495 1.96133C0.843194 1.80783 0.926286 1.66678 1.03548 1.54716C1.14468 1.42754 1.27759 1.33196 1.42575 1.26652C1.57391 1.20108 1.73407 1.1672 1.89604 1.16705H3.64604C3.92913 1.16426 4.20358 1.26451 4.41823 1.44911C4.63288 1.63371 4.77308 1.89006 4.8127 2.17038C4.88657 2.73042 5.02355 3.28031 5.22104 3.80955C5.29952 4.01834 5.31651 4.24525 5.26998 4.4634C5.22346 4.68154 5.11537 4.88178 4.95854 5.04038L4.2177 5.78122C5.04811 7.24162 6.2573 8.45081 7.7177 9.28122L8.45854 8.54038C8.61714 8.38355 8.81738 8.27546 9.03552 8.22894C9.25367 8.18241 9.48058 8.1994 9.68937 8.27788C10.2186 8.47537 10.7685 8.61235 11.3285 8.68622C11.6119 8.72619 11.8707 8.86892 12.0557 9.08725C12.2407 9.30559 12.339 9.5843 12.3319 9.87038Z" stroke="white" stroke-linecap="round" stroke-linejoin="round"/>
</svg>
