<svg width="9" height="9" viewBox="0 0 9 9" fill="none" xmlns="http://www.w3.org/2000/svg">
<path d="M4.55502 8.45588C3.77686 8.45588 3.07651 8.29958 2.49289 7.98697C1.90927 7.67436 1.48128 7.20545 1.17001 6.58024C0.85875 5.95502 0.703125 5.25165 0.703125 4.47013C0.703125 3.68862 0.85875 2.94618 1.17001 2.36004C1.48128 1.7739 1.90927 1.30498 2.49289 0.953301C3.07651 0.601617 3.73795 0.445312 4.55502 0.445312C5.37209 0.445312 6.03352 0.601617 6.57823 0.953301C7.12294 1.30498 7.58985 1.7739 7.90111 2.36004C8.21238 2.98525 8.368 3.68862 8.368 4.50921C8.368 5.32981 8.21238 5.9941 7.90111 6.61931C7.58985 7.24453 7.16185 7.67436 6.57823 8.02605C5.99461 8.33865 5.33318 8.49496 4.51611 8.49496L4.55502 8.45588ZM4.51611 6.81469C5.02191 6.81469 5.411 6.69746 5.72226 6.50208C6.03353 6.3067 6.22806 5.9941 6.38369 5.64241C6.53932 5.29073 6.57823 4.89997 6.57823 4.47013C6.57823 4.0403 6.50041 3.64954 6.38369 3.29786C6.22806 2.94617 6.03353 2.63356 5.72226 2.39911C5.411 2.16465 5.02191 2.04743 4.51611 2.04743C4.0103 2.04743 3.62122 2.16465 3.30996 2.39911C2.99869 2.63356 2.76525 2.9071 2.64853 3.29786C2.4929 3.64954 2.45399 4.0403 2.45399 4.47013C2.45399 4.89997 2.5318 5.29073 2.64853 5.64241C2.76525 5.9941 2.99869 6.26763 3.30996 6.50208C3.62122 6.73654 4.0103 6.81469 4.51611 6.81469Z" fill="black"/>
</svg>
