<svg width="9" height="12" viewBox="0 0 9 12" fill="none" xmlns="http://www.w3.org/2000/svg">
<path d="M0.609211 11.2283V0.521526H2.28228L2.36007 1.57657C2.67134 1.14674 3.06043 0.873207 3.48842 0.677827C3.9164 0.482448 4.38329 0.404297 4.8891 0.404297C5.62835 0.404297 6.2509 0.599674 6.7567 0.951358C7.26251 1.30304 7.61266 1.77195 7.88502 2.39717C8.15738 3.02238 8.2741 3.68667 8.2741 4.46819C8.2741 5.24971 8.15738 5.914 7.88502 6.50014C7.61266 7.08628 7.26249 7.59427 6.71778 7.94595C6.17307 8.29764 5.55055 8.49301 4.73348 8.49301C3.91641 8.49301 4.03312 8.45394 3.72185 8.37578C3.41059 8.29763 3.17714 8.18041 2.94369 8.0241C2.71025 7.8678 2.51571 7.7115 2.36007 7.55519V11.2674H0.570312L0.609211 11.2283ZM4.50002 6.81275C5.00582 6.81275 5.3949 6.69552 5.66726 6.46107C5.93961 6.22661 6.17308 5.95308 6.2898 5.6014C6.40652 5.24971 6.48434 4.85895 6.48434 4.46819C6.48434 4.07743 6.40652 3.6476 6.2898 3.29591C6.17308 2.94423 5.93962 2.63162 5.62836 2.39717C5.31709 2.16271 4.92801 2.04548 4.46112 2.04548C3.99422 2.04548 3.64404 2.16271 3.33277 2.39717C3.02151 2.63162 2.78807 2.90515 2.63243 3.29591C2.4768 3.6476 2.399 4.03836 2.399 4.46819C2.399 4.89803 2.4768 5.28879 2.63243 5.67955C2.78807 6.07031 3.02151 6.34384 3.33277 6.53922C3.64404 6.7346 4.03313 6.85183 4.53894 6.85183L4.50002 6.81275Z" fill="black"/>
</svg>
