<svg width="8" height="9" viewBox="0 0 8 9" fill="none" xmlns="http://www.w3.org/2000/svg">
<path d="M3.25481 8.42661C2.90464 8.42661 2.59337 8.38753 2.2432 8.27031C1.89303 8.15308 1.62068 8.03585 1.38723 7.84047C1.11488 7.64509 0.920333 7.41064 0.764701 7.09803C0.609068 6.78542 0.53125 6.47281 0.53125 6.08205C0.53125 5.69129 0.609073 5.14423 0.842522 4.83162C1.03706 4.51902 1.30941 4.28456 1.65958 4.08918C2.00975 3.93287 2.39883 3.81565 2.82682 3.7375C3.25481 3.65934 3.72171 3.65935 4.1886 3.65935H5.70603C5.70603 3.30766 5.66711 3.03413 5.55039 2.7606C5.43366 2.52614 5.27803 2.29169 5.04459 2.17446C4.81114 2.05723 4.49988 1.94 4.14971 1.94C3.79953 1.94 3.6828 1.94001 3.48826 2.01816C3.29372 2.09631 3.09919 2.17446 2.98246 2.25261C2.82683 2.36984 2.74901 2.52614 2.67119 2.68245H0.842522C0.920338 2.29169 1.03705 1.94001 1.2705 1.6274C1.46504 1.31479 1.7374 1.08033 2.04866 0.92403C2.35993 0.72865 2.7101 0.61142 3.06027 0.494192C3.41045 0.376964 3.79952 0.337891 4.1886 0.337891C4.96677 0.337891 5.55039 0.494191 6.0562 0.767722C6.52309 1.08033 6.87326 1.51017 7.10671 2.05723C7.34016 2.60429 7.45689 3.26859 7.45689 4.0501V8.27031H5.86166V7.33248C5.5893 7.60601 5.35585 7.84047 5.0835 7.9577C4.81114 8.07493 4.49987 8.23123 4.1886 8.27031C3.87734 8.30938 3.56608 8.34846 3.25481 8.34846V8.42661ZM3.6828 6.9808C4.07188 6.9808 4.46097 6.90265 4.73333 6.74634C5.00568 6.59004 5.27804 6.39466 5.47258 6.12113C5.66712 5.8476 5.74493 5.53499 5.74493 5.1833V4.94885H3.60498C3.37154 4.94885 3.177 4.98792 2.98246 5.06608C2.78792 5.14423 2.6712 5.22238 2.55447 5.33961C2.43775 5.45684 2.39884 5.65222 2.39884 5.88667C2.39884 6.12113 2.43775 6.31651 2.59338 6.47281C2.71011 6.62912 2.86573 6.74634 3.06027 6.82449C3.25481 6.90264 3.48827 6.94172 3.72171 6.94172H3.6828V6.9808Z" fill="black"/>
</svg>
