<svg width="8" height="9" viewBox="0 0 8 9" fill="none" xmlns="http://www.w3.org/2000/svg">
<path d="M3.76625 8.45394C2.94918 8.45394 2.28775 8.29764 1.70413 7.94595C1.12051 7.59427 0.692523 7.12536 0.420167 6.53922C0.108902 5.95308 -0.0078125 5.24971 -0.0078125 4.46819C-0.0078125 3.68667 0.147801 2.98331 0.459065 2.35809C0.770329 1.73288 1.19834 1.26397 1.74305 0.912285C2.32667 0.560602 2.9881 0.404297 3.80517 0.404297C4.62224 0.404297 4.89458 0.521526 5.32257 0.716906C5.75056 0.912285 6.13965 1.18582 6.45091 1.57657C6.76218 1.92826 6.99562 2.35809 7.15125 2.827C7.30689 3.29591 7.34579 3.8039 7.34579 4.35096V4.70265C7.34579 4.81988 7.34579 4.9371 7.34579 5.05433H1.89867C1.89867 5.40601 2.0154 5.71863 2.17103 5.99216C2.32666 6.26569 2.56011 6.50014 2.83247 6.69552C3.10483 6.8909 3.455 6.92998 3.88299 6.92998C4.31098 6.92998 4.34988 6.92998 4.58333 6.85183C4.81678 6.77367 5.01132 6.69552 5.16695 6.5783C5.32259 6.46107 5.4393 6.26568 5.51711 6.10938H7.3069C7.19017 6.65644 6.95673 7.12535 6.60656 7.47704C6.25638 7.82872 5.8673 8.10225 5.36149 8.25856C4.85569 8.41486 4.38878 8.49301 3.84407 8.49301H3.80517L3.76625 8.45394ZM1.78195 3.68667H5.51711C5.51711 3.37407 5.4393 3.06146 5.28367 2.78793C5.12804 2.51439 4.93351 2.31902 4.66115 2.16271C4.3888 2.00641 4.07753 1.92826 3.68845 1.92826C3.29937 1.92826 2.91029 2.00641 2.63793 2.16271C2.36557 2.31902 2.17102 2.55347 2.01539 2.827C1.85975 3.10054 1.78196 3.37407 1.74305 3.68667H1.78195Z" fill="black"/>
</svg>
