<svg width="8" height="12" viewBox="0 0 8 12" fill="none" xmlns="http://www.w3.org/2000/svg">
<path d="M0.660156 11.3768V3.56163H2.44994V8.6415C2.52776 8.52427 2.56666 8.40705 2.68338 8.28982C2.7612 8.17259 2.87791 8.05536 2.91682 7.97721L6.26293 3.56163H7.85815V11.3768H6.06839V6.33602C5.99057 6.45325 5.91274 6.57048 5.83492 6.68771C5.75711 6.80493 5.6793 6.92216 5.60148 7.00031L2.2943 11.3377H0.660156V11.3768ZM4.39534 2.74104C3.53937 2.74104 2.91682 2.54566 2.41102 2.1549C1.90521 1.76414 1.71069 1.178 1.67178 0.396484H3.2281C3.2281 0.748168 3.34482 1.0217 3.53936 1.178C3.7339 1.33431 4.04517 1.41246 4.39534 1.41246C4.74552 1.41246 5.01785 1.33431 5.2513 1.178C5.48475 1.0217 5.56258 0.748168 5.56258 0.396484H7.11891C7.11891 0.904471 7.00217 1.3343 6.76873 1.68599C6.53528 2.03767 6.224 2.3112 5.83492 2.4675C5.44584 2.62381 4.94006 2.74104 4.39534 2.74104Z" fill="black"/>
</svg>
