<svg width="8" height="9" viewBox="0 0 8 9" fill="none" xmlns="http://www.w3.org/2000/svg">
<path d="M4.48142 8.45395C3.66435 8.45395 3.00291 8.29765 2.4582 7.94597C1.91348 7.59429 1.48552 7.12537 1.21316 6.53923C0.940803 5.91402 0.785156 5.24973 0.785156 4.42914C0.785156 3.60854 0.940803 2.94425 1.21316 2.31903C1.48552 1.69382 1.95241 1.22491 2.49712 0.873223C3.08074 0.521539 3.74217 0.365234 4.55924 0.365234C5.37631 0.365234 5.68757 0.482463 6.15446 0.677843C6.62136 0.873223 7.01045 1.18583 7.28281 1.57659C7.55516 1.96735 7.74971 2.47534 7.82753 3.06148H6.07667C5.95994 2.67072 5.7654 2.39718 5.49304 2.24088C5.22069 2.08458 4.90942 1.96735 4.52034 1.96735C4.13126 1.96735 3.62546 2.08458 3.3531 2.31903C3.08075 2.55349 2.84728 2.8661 2.73056 3.21778C2.61383 3.56946 2.53602 3.96022 2.53602 4.35098C2.53602 4.74174 2.61383 5.17157 2.73056 5.52326C2.84728 5.87494 3.08074 6.18755 3.392 6.38293C3.70326 6.61739 4.05345 6.69553 4.52034 6.69553C4.98724 6.69553 5.22068 6.61739 5.53194 6.46108C5.84321 6.30478 6.03775 6.03124 6.11556 5.64049H7.94425C7.86643 6.2657 7.67189 6.73462 7.36063 7.16445C7.04936 7.59429 6.62137 7.86781 6.11556 8.06319C5.60976 8.25857 5.06504 8.3758 4.48142 8.3758V8.45395Z" fill="black"/>
</svg>
