<svg width="32" height="32" viewBox="0 0 32 32" fill="none" xmlns="http://www.w3.org/2000/svg">
<path d="M29.2285 7.46551C27.9835 5.08188 26.2326 3.20623 23.937 1.87765C21.6415 0.549069 18.9179 -0.115221 15.7663 -0.154297C12.5759 -0.154297 9.81341 0.509993 7.47892 1.83858C5.14444 3.16716 3.39358 5.0428 2.10962 7.46551C0.864559 9.88822 0.242033 12.6626 0.203125 15.8668C0.203125 18.9929 0.786748 21.7673 1.9929 24.1509C3.19905 26.5736 4.94991 28.4493 7.24548 29.8169C9.54106 31.1846 12.3035 31.8489 15.494 31.888C18.7234 31.888 21.4858 31.2237 23.7814 29.856C26.077 28.4884 27.8667 26.6127 29.1118 24.19C30.3569 21.7673 30.9794 18.9929 31.0183 15.8668C31.0183 12.6626 30.3958 9.88822 29.1507 7.50459H29.2285V7.46551ZM22.3029 23.135C20.7077 24.7762 18.5288 25.8312 16.1165 25.9875H15.066C12.965 25.8703 11.0585 25.0106 9.54106 23.682C7.40111 21.8064 6.11714 18.9929 6.11714 15.8668C6.11714 12.7408 7.28438 10.279 9.22979 8.44241C9.22979 8.44241 9.2687 8.36426 9.34652 8.32518C10.9028 6.87937 12.9261 5.94155 15.1438 5.82432H16.1943C18.5288 5.94155 20.6299 6.95752 22.1862 8.52056C22.264 8.59871 22.3418 8.67687 22.4196 8.75502C24.1705 10.5916 25.221 13.0534 25.221 15.8668C25.221 18.6803 24.1316 21.2984 22.3418 23.135H22.3029Z" fill="black"/>
</svg>
