<svg width="9" height="12" viewBox="0 0 9 12" fill="none" xmlns="http://www.w3.org/2000/svg">
<path d="M0.757649 11.199V0.492229H2.43069L2.50851 1.54728C2.81978 1.11744 3.20887 0.843916 3.63685 0.648536C4.06484 0.453157 4.53173 0.375 5.03753 0.375C5.77679 0.375 6.39931 0.570383 6.90512 0.922067C7.41092 1.27375 7.7611 1.74266 8.03346 2.36787C8.26691 2.99309 8.42254 3.65738 8.42254 4.4389C8.42254 5.22042 8.30581 5.88471 8.03346 6.47085C7.7611 7.05699 7.41093 7.56497 6.86622 7.91666C6.3215 8.26834 5.69896 8.46372 4.88189 8.46372C4.06482 8.46372 4.18156 8.42465 3.87029 8.34649C3.55903 8.26834 3.32558 8.15111 3.09213 7.99481C2.85868 7.8385 2.66414 7.6822 2.50851 7.5259V11.2381H0.71875L0.757649 11.199ZM4.64845 6.78346C5.15426 6.78346 5.54334 6.66622 5.81569 6.43177C6.08805 6.19731 6.32149 5.92378 6.43821 5.5721C6.55494 5.22042 6.63275 4.82966 6.63275 4.4389C6.63275 4.04814 6.55494 3.61831 6.43821 3.26662C6.32149 2.91494 6.08806 2.60233 5.7768 2.36787C5.46553 2.13342 5.07645 2.01619 4.60956 2.01619C4.14266 2.01619 3.79248 2.13342 3.48121 2.36787C3.16995 2.60233 2.9365 2.87586 2.78087 3.26662C2.62524 3.61831 2.54741 4.00907 2.54741 4.4389C2.54741 4.86874 2.62524 5.25949 2.78087 5.65025C2.9365 6.04101 3.16995 6.31455 3.48121 6.50993C3.79248 6.70531 4.18155 6.82253 4.68735 6.82253L4.64845 6.78346Z" fill="black"/>
</svg>
