<svg width="9" height="12" viewBox="0 0 9 12" fill="none" xmlns="http://www.w3.org/2000/svg">
<path d="M4.4927 11.4257C3.94798 11.4257 3.48107 11.3475 3.09199 11.1912C2.70291 11.0349 2.31384 10.8005 2.00257 10.5269C1.69131 10.2534 1.45785 9.90172 1.26331 9.51096C1.06877 9.1202 0.913145 8.69036 0.835329 8.26052C0.757513 7.83069 0.679688 7.3227 0.679688 6.81472C0.679688 6.07227 0.679692 5.36891 0.757508 4.74369C0.835324 4.11848 0.952049 3.57142 1.14659 3.06343C1.34113 2.59452 1.61349 2.16468 2.00257 1.85207C2.39165 1.53947 2.89747 1.26594 3.51999 1.10963C3.90907 0.992406 4.29815 0.914249 4.72613 0.836097C5.15412 0.757946 5.58212 0.71887 6.04902 0.640718C6.39919 0.601642 6.67154 0.562571 6.86608 0.523495C7.06062 0.523495 7.25517 0.484414 7.4108 0.445338C7.56643 0.406262 7.72205 0.406263 7.83878 0.367188V2.16468C7.76096 2.20376 7.64424 2.24283 7.52752 2.24283C7.41079 2.24283 7.29406 2.24284 7.17734 2.28191H6.04902C5.65994 2.32099 5.23194 2.36006 4.80396 2.39913C4.37597 2.43821 4.02579 2.51637 3.63671 2.63359C3.28654 2.75082 2.97527 2.98528 2.78073 3.29788C2.70292 3.41511 2.58619 3.61049 2.50837 3.76679C2.43055 3.96217 2.39166 4.15755 2.35275 4.39201C2.35275 4.58739 2.27493 4.82185 2.27493 5.01723C2.46947 4.70462 2.74183 4.47016 3.05309 4.27478C3.36436 4.0794 3.67561 3.96217 3.98687 3.88402C4.29814 3.80587 4.60941 3.76679 4.92067 3.76679C5.62102 3.76679 6.24354 3.9231 6.71044 4.23571C7.21624 4.54832 7.56642 4.97815 7.83878 5.52521C8.11114 6.07227 8.22786 6.69749 8.22786 7.40086C8.22786 8.10422 8.07222 8.80759 7.76096 9.39373C7.44969 9.97987 7.02171 10.4097 6.477 10.7614C5.93228 11.1131 5.23193 11.2303 4.45377 11.2303V11.4257H4.4927ZM4.4927 9.82356C4.92068 9.82356 5.27085 9.70634 5.58212 9.51096C5.89338 9.31558 6.08793 9.04205 6.24356 8.72944C6.39919 8.41683 6.477 8.06515 6.477 7.67439C6.477 7.28363 6.39919 6.97102 6.24356 6.65841C6.08793 6.34581 5.89338 6.11135 5.58212 5.91597C5.27085 5.72059 4.92067 5.64244 4.53159 5.64244C4.14251 5.64244 3.75343 5.72059 3.48107 5.91597C3.20872 6.11135 2.97527 6.34581 2.78073 6.65841C2.58619 6.97102 2.54729 7.3227 2.54729 7.67439C2.54729 8.02607 2.62511 8.37776 2.74183 8.72944C2.85856 9.08112 3.09199 9.31558 3.40325 9.51096C3.67561 9.70634 4.06471 9.82356 4.4927 9.82356Z" fill="black"/>
</svg>
