<svg width="9" height="12" viewBox="0 0 9 12" fill="none" xmlns="http://www.w3.org/2000/svg">
<path d="M1.04287 11.8535V10.056C1.47086 10.056 1.85994 10.0169 2.13229 9.8997C2.40465 9.82155 2.63809 9.66524 2.83263 9.46986C3.02717 9.27448 3.1828 9.00095 3.33843 8.68834L0.03125 0.560547H2.13229L4.38896 6.61732L6.13982 0.560547H8.12414L6.0231 7.12531C5.90638 7.47699 5.78965 7.86775 5.63402 8.2585C5.47839 8.64926 5.32275 9.04002 5.16712 9.43078C5.01149 9.82154 4.77805 10.1732 4.5446 10.4858C4.31115 10.7984 4.0777 11.072 3.76644 11.2674C3.53299 11.4237 3.29955 11.58 3.0661 11.6581C2.83265 11.7363 2.56028 11.8144 2.24901 11.8535C1.93775 11.8926 1.54868 11.8926 1.04287 11.8926V11.8535Z" fill="black"/>
</svg>
