<svg width="9" height="9" viewBox="0 0 9 9" fill="none" xmlns="http://www.w3.org/2000/svg">
<path d="M4.75065 8.42465C3.93358 8.42465 3.27215 8.26834 2.68853 7.91666C2.10491 7.56497 1.67692 7.09607 1.40457 6.50993C1.0933 5.92379 0.976562 5.22042 0.976562 4.4389C0.976562 3.65738 1.1322 2.95401 1.44346 2.3288C1.75473 1.70358 2.18271 1.23467 2.72742 0.882988C3.31105 0.531305 3.9725 0.375 4.78957 0.375C5.60664 0.375 5.87898 0.492229 6.30697 0.687609C6.73496 0.882988 7.12405 1.15652 7.43531 1.54728C7.74658 1.89896 7.98002 2.3288 8.13565 2.79771C8.29129 3.26662 8.33019 3.77461 8.33019 4.32167V4.67335C8.33019 4.79058 8.33019 4.90781 8.33019 5.02504H2.88307C2.88307 5.37672 2.9998 5.68933 3.15543 5.96286C3.31106 6.23639 3.54451 6.47085 3.81687 6.66623C4.08923 6.86161 4.43938 6.90069 4.86737 6.90069C5.29536 6.90069 5.33428 6.90068 5.56773 6.82253C5.80118 6.74438 5.99572 6.66623 6.15135 6.549C6.30698 6.43177 6.42369 6.23639 6.50151 6.08009H8.29129C8.17457 6.62715 7.9411 7.09606 7.59093 7.44775C7.24076 7.79943 6.8517 8.07296 6.34589 8.22927C5.84009 8.38557 5.37318 8.46372 4.82847 8.46372H4.78957L4.75065 8.42465ZM2.80525 3.65738H6.54043C6.54043 3.34477 6.4626 3.03217 6.30697 2.75863C6.15134 2.4851 5.95681 2.28972 5.68445 2.13342C5.41209 1.97711 5.10083 1.89897 4.71175 1.89897C4.32267 1.89897 3.93358 1.97711 3.66123 2.13342C3.38887 2.28972 3.19434 2.52418 3.03871 2.79771C2.88308 3.07124 2.80526 3.34477 2.76635 3.65738H2.80525Z" fill="black"/>
</svg>
