<svg width="8" height="9" viewBox="0 0 8 9" fill="none" xmlns="http://www.w3.org/2000/svg">
<path d="M0.109375 8.37573V6.73455C0.342823 6.73455 0.498465 6.69547 0.654097 6.57824C0.809729 6.46102 0.965362 6.34379 1.04318 6.14841C1.1599 5.91395 1.27662 5.64042 1.31553 5.32781C1.35444 5.0152 1.39335 4.66352 1.43226 4.31184C1.43226 3.882 1.47116 3.41309 1.51007 2.98325C1.51007 2.55342 1.51007 2.08451 1.54898 1.69375V0.560547H7.38519V8.37573H5.59541V2.16266H3.22202V3.21771C3.22202 3.60847 3.22203 3.96016 3.18312 4.31184C3.18312 4.66352 3.14421 5.05428 3.06639 5.40597C3.02748 5.79673 2.94967 6.18748 2.87185 6.57824C2.79403 6.969 2.63841 7.32069 2.40496 7.63329C2.17151 7.9459 1.86024 8.14128 1.51007 8.2585C1.15989 8.37573 0.692996 8.41481 0.109375 8.41481V8.37573Z" fill="black"/>
</svg>
