<svg width="8" height="9" viewBox="0 0 8 9" fill="none" xmlns="http://www.w3.org/2000/svg">
<path d="M4.13767 8.45395C3.3206 8.45395 2.65916 8.29765 2.11445 7.94597C1.56973 7.59429 1.14177 7.12537 0.869409 6.53923C0.597053 5.91402 0.441406 5.24973 0.441406 4.42914C0.441406 3.60854 0.597053 2.94425 0.869409 2.31903C1.14177 1.69382 1.60866 1.22491 2.15337 0.873223C2.73699 0.521539 3.39842 0.365234 4.21549 0.365234C5.03256 0.365234 5.34382 0.482463 5.81071 0.677843C6.27761 0.873223 6.6667 1.18583 6.93906 1.57659C7.21141 1.96735 7.40596 2.47534 7.48378 3.06148H5.73292C5.61619 2.67072 5.42165 2.39718 5.14929 2.24088C4.87694 2.08458 4.56567 1.96735 4.17659 1.96735C3.78751 1.96735 3.28171 2.08458 3.00935 2.31903C2.737 2.55349 2.50353 2.8661 2.38681 3.21778C2.27008 3.56946 2.19227 3.96022 2.19227 4.35098C2.19227 4.74174 2.27008 5.17157 2.38681 5.52326C2.50353 5.87494 2.73699 6.18755 3.04825 6.38293C3.35951 6.61739 3.7097 6.69553 4.17659 6.69553C4.64349 6.69553 4.87693 6.61739 5.18819 6.46108C5.49946 6.30478 5.694 6.03124 5.77181 5.64049H7.6005C7.52268 6.2657 7.32814 6.73462 7.01688 7.16445C6.70561 7.59429 6.27762 7.86781 5.77181 8.06319C5.26601 8.25857 4.72129 8.3758 4.13767 8.3758V8.45395Z" fill="black"/>
</svg>
