<svg width="8" height="9" viewBox="0 0 8 9" fill="none" xmlns="http://www.w3.org/2000/svg">
<path d="M3.35247 8.48324C3.0023 8.48324 2.69103 8.44417 2.34086 8.32694C1.99069 8.20971 1.71834 8.09248 1.48489 7.8971C1.25144 7.70172 1.01799 7.46727 0.862357 7.15466C0.706725 6.84206 0.628906 6.52945 0.628906 6.13869C0.628906 5.74793 0.706729 5.20087 0.940178 4.88826C1.17363 4.57566 1.40706 4.30213 1.75724 4.14582C2.10741 3.98952 2.49649 3.87228 2.92448 3.79413C3.35247 3.71598 3.81936 3.71599 4.28626 3.71599H5.80368C5.80368 3.3643 5.76477 3.09076 5.64804 2.81723C5.53132 2.5437 5.37569 2.34832 5.14224 2.23109C4.90879 2.11387 4.59753 1.99665 4.24736 1.99665C3.89719 1.99665 3.78046 1.99664 3.58592 2.07479C3.39138 2.11387 3.19684 2.2311 3.08012 2.30925C2.92449 2.42648 2.84667 2.58278 2.76885 2.73909H0.940178C1.01799 2.34833 1.13471 1.99664 1.36816 1.68403C1.5627 1.37142 1.83505 1.13697 2.14632 0.98067C2.45758 0.785291 2.80776 0.66806 3.15793 0.550833C3.5081 0.433605 3.89718 0.394531 4.28626 0.394531C5.06442 0.394531 5.64805 0.550837 6.15385 0.824369C6.62075 1.13698 6.97092 1.56681 7.20436 2.11387C7.43781 2.66093 7.55455 3.32523 7.55455 4.10674V8.32694H5.95931V7.38912C5.68696 7.66265 5.45351 7.89711 5.18115 8.01434C4.9088 8.13157 4.59752 8.28786 4.28626 8.32694C3.975 8.36602 3.66373 8.4051 3.35247 8.4051V8.48324ZM3.78046 7.03744C4.16954 7.03744 4.55863 6.95929 4.83098 6.80298C5.10334 6.64668 5.37569 6.4513 5.57023 6.17776C5.76477 5.90423 5.84258 5.59163 5.84258 5.23994V5.00549H3.70264C3.46919 5.00549 3.27466 5.04457 3.08012 5.12272C2.88558 5.20087 2.76885 5.27902 2.65213 5.39625C2.53541 5.51347 2.4965 5.70885 2.4965 5.94331C2.4965 6.17776 2.53541 6.37314 2.69104 6.52945C2.80776 6.68575 2.96339 6.80299 3.15793 6.88114C3.35247 6.95929 3.58592 6.99836 3.81937 6.99836H3.78046V7.03744Z" fill="black"/>
</svg>
