<svg width="8" height="9" viewBox="0 0 8 9" fill="none" xmlns="http://www.w3.org/2000/svg">
<path d="M0.878906 8.37573V0.560547H4.41955C4.76973 0.560547 5.08098 0.560546 5.43115 0.638698C5.78133 0.716849 6.0926 0.795006 6.36496 0.912234C6.63731 1.06854 6.87077 1.26391 7.0264 1.53745C7.18203 1.81098 7.29873 2.16266 7.29873 2.59249C7.29873 3.02233 7.29874 3.06141 7.18202 3.25679C7.06529 3.45217 6.98748 3.64755 6.87076 3.80385C6.75403 3.96015 6.5595 4.07738 6.36496 4.19461C6.83185 4.31184 7.14312 4.54629 7.33766 4.8589C7.5322 5.17151 7.64892 5.56227 7.64892 6.03118C7.64892 6.50009 7.57111 6.8127 7.41548 7.1253C7.25985 7.43791 7.02639 7.67237 6.75404 7.86774C6.48168 8.06312 6.17041 8.18035 5.82023 8.29758C5.47006 8.37573 5.1199 8.41481 4.80863 8.41481H0.878906V8.37573ZM2.70759 3.76477H4.49737C4.69191 3.76477 4.84753 3.68663 5.04207 3.64755C5.23661 3.60847 5.35335 3.49124 5.47008 3.37401C5.5868 3.25678 5.62569 3.10048 5.62569 2.9051C5.62569 2.70972 5.54788 2.47527 5.43115 2.35804C5.31443 2.24081 5.11989 2.16266 4.92535 2.16266C4.73081 2.16266 4.53627 2.12358 4.34173 2.12358H2.78541V3.80385H2.70759V3.76477ZM2.70759 6.77362H4.53627C4.76972 6.77362 5.00317 6.77362 5.19771 6.69547C5.39225 6.61732 5.54789 6.53916 5.66462 6.42194C5.78134 6.30471 5.85916 6.10933 5.85916 5.87488C5.85916 5.64042 5.85915 5.48412 5.70351 5.36689C5.6257 5.24966 5.47007 5.13243 5.31443 5.09336C5.1588 5.05428 5.00317 5.0152 4.80863 4.97613H2.66869V6.73455L2.70759 6.77362Z" fill="black"/>
</svg>
