<svg width="9" height="9" viewBox="0 0 9 9" fill="none" xmlns="http://www.w3.org/2000/svg">
<path d="M4.69595 8.48323C3.87888 8.48323 3.21745 8.32693 2.63383 7.97524C2.05021 7.62356 1.62221 7.15465 1.34985 6.56851C1.03859 5.98237 0.921875 5.27901 0.921875 4.49749C0.921875 3.71597 1.0775 3.01261 1.38876 2.38739C1.70003 1.76218 2.12802 1.29326 2.67274 0.941576C3.25636 0.589893 3.91779 0.433594 4.73486 0.433594C5.55193 0.433594 5.82428 0.550817 6.25227 0.746196C6.68026 0.941576 7.06934 1.21511 7.3806 1.60587C7.69187 1.95756 7.92532 2.38738 8.08095 2.85629C8.23659 3.32521 8.27549 3.83319 8.27549 4.38025V4.73195C8.27549 4.84917 8.27549 4.9664 8.23658 5.08363H2.78946C2.78946 5.43531 2.90619 5.74792 3.06182 6.02145C3.21745 6.29498 3.45089 6.52943 3.72325 6.72481C3.9956 6.92019 4.34578 6.95927 4.77377 6.95927C5.20176 6.95927 5.24066 6.95927 5.47411 6.88112C5.70756 6.80297 5.9021 6.72481 6.05773 6.60759C6.21336 6.49036 6.33008 6.29497 6.4079 6.13867H8.19767C8.08095 6.68573 7.84751 7.15464 7.49733 7.50633C7.14716 7.85801 6.75808 8.13154 6.25227 8.28785C5.74647 8.44415 5.27957 8.5223 4.73486 8.5223H4.69595V8.48323ZM2.75055 3.71597H6.48572C6.48572 3.40336 6.4079 3.09075 6.25227 2.81722C6.09664 2.54368 5.9021 2.34831 5.62974 2.19201C5.35738 2.03571 5.04612 1.95755 4.65704 1.95755C4.26796 1.95755 3.87888 2.03571 3.60653 2.19201C3.33417 2.34831 3.13963 2.58276 2.984 2.85629C2.82836 3.12983 2.75055 3.40336 2.75055 3.71597Z" fill="black"/>
</svg>
