<svg width="8" height="9" viewBox="0 0 8 9" fill="none" xmlns="http://www.w3.org/2000/svg">
<path d="M3.95377 8.42465C3.1367 8.42465 2.47526 8.26834 1.89164 7.91666C1.30802 7.56497 0.880035 7.09607 0.607678 6.50993C0.296414 5.92379 0.179688 5.22042 0.179688 4.4389C0.179688 3.65738 0.335324 2.95401 0.646589 2.3288C0.957853 1.70358 1.38584 1.23467 1.93055 0.882988C2.51417 0.531305 3.1756 0.375 3.99267 0.375C4.80974 0.375 5.08211 0.492229 5.5101 0.687609C5.93808 0.882988 6.32715 1.15652 6.63841 1.54728C6.94968 1.89896 7.18315 2.3288 7.33878 2.79771C7.49441 3.26662 7.53332 3.77461 7.53332 4.32167V4.67335C7.53332 4.79058 7.53332 4.90781 7.53332 5.02504H2.08618C2.08618 5.37672 2.20291 5.68933 2.35854 5.96286C2.51417 6.23639 2.74761 6.47085 3.01997 6.66623C3.29233 6.86161 3.6425 6.90069 4.07049 6.90069C4.49848 6.90069 4.53738 6.90068 4.77083 6.82253C5.00428 6.74438 5.19882 6.66623 5.35445 6.549C5.51009 6.43177 5.62682 6.23639 5.70464 6.08009H7.4944C7.37767 6.62715 7.14423 7.09606 6.79406 7.44775C6.44388 7.79943 6.0548 8.07296 5.54899 8.22927C5.04319 8.38557 4.57629 8.46372 4.03158 8.46372H3.99267L3.95377 8.42465ZM2.00837 3.65738H5.74353C5.74353 3.34477 5.66573 3.03217 5.5101 2.75863C5.35446 2.4851 5.15992 2.28972 4.88756 2.13342C4.61521 1.97711 4.30394 1.89897 3.91486 1.89897C3.52578 1.89897 3.1367 1.97711 2.86434 2.13342C2.59198 2.28972 2.39744 2.52418 2.24181 2.79771C2.08618 3.07124 2.00837 3.34477 2.00837 3.65738Z" fill="black"/>
</svg>
