<svg width="7" height="9" viewBox="0 0 7 9" fill="none" xmlns="http://www.w3.org/2000/svg">
<path d="M4.95758 8.37574V5.60136C4.5685 5.64043 4.25724 5.6795 3.98488 5.71858H3.24562C2.50637 5.71858 1.92276 5.60135 1.45586 5.3669C0.988963 5.13244 0.677699 4.78076 0.483158 4.27277C0.288618 3.80386 0.171875 3.17865 0.171875 2.47528V0.521484H1.96166V2.39712C1.96166 2.74881 1.96166 3.02234 2.03948 3.29587C2.1173 3.53033 2.23401 3.72571 2.46746 3.88201C2.70091 4.03831 3.01216 4.07739 3.47906 4.07739H4.17942C4.41287 4.07739 4.68521 4.03832 4.91866 3.99924V0.560557H6.70845V8.37574H4.91866H4.95758Z" fill="black"/>
</svg>
