<svg width="9" height="12" viewBox="0 0 9 12" fill="none" xmlns="http://www.w3.org/2000/svg">
<path d="M1.66787 11.8242V10.0267C2.09586 10.0267 2.48494 9.98762 2.75729 9.8704C3.02965 9.79224 3.26309 9.63594 3.45763 9.44056C3.65217 9.24518 3.8078 8.97165 3.96343 8.65905L0.65625 0.53125H2.75729L5.01396 6.58802L6.76482 0.53125H8.74914L6.6481 7.09601C6.53138 7.44769 6.41465 7.83845 6.25902 8.22921C6.10339 8.61997 5.94775 9.01073 5.79212 9.40149C5.63649 9.79224 5.40305 10.1439 5.1696 10.4565C4.93615 10.7691 4.7027 11.0427 4.39144 11.2381C4.15799 11.3944 3.92455 11.5507 3.6911 11.6288C3.45765 11.707 3.18528 11.7851 2.87401 11.8242C2.56275 11.8633 2.17368 11.8633 1.66787 11.8633V11.8242Z" fill="black"/>
</svg>
