<svg width="8" height="9" viewBox="0 0 8 9" fill="none" xmlns="http://www.w3.org/2000/svg">
<path d="M4.03578 8.45394C3.21871 8.45394 2.55728 8.29764 1.97366 7.94595C1.39004 7.59427 0.962054 7.12536 0.689698 6.53922C0.378433 5.95308 0.261719 5.24971 0.261719 4.46819C0.261719 3.68667 0.417332 2.98331 0.728596 2.35809C1.03986 1.73288 1.46787 1.26397 2.01258 0.912285C2.5962 0.560602 3.25763 0.404297 4.0747 0.404297C4.89177 0.404297 5.16411 0.521526 5.5921 0.716906C6.02009 0.912285 6.40918 1.18582 6.72045 1.57657C7.03171 1.92826 7.26515 2.35809 7.42079 2.827C7.57642 3.29591 7.61533 3.8039 7.61533 4.35096V4.70265C7.61533 4.81988 7.61533 4.9371 7.61533 5.05433H2.1682C2.1682 5.40601 2.28493 5.71863 2.44056 5.99216C2.59619 6.26569 2.82965 6.50014 3.102 6.69552C3.37436 6.8909 3.72454 6.92998 4.15252 6.92998C4.58051 6.92998 4.61942 6.92998 4.85286 6.85183C5.08631 6.77367 5.28085 6.69552 5.43648 6.5783C5.59212 6.46107 5.70883 6.26568 5.78664 6.10938H7.57643C7.4597 6.65644 7.22626 7.12535 6.87609 7.47704C6.52591 7.82872 6.13683 8.10225 5.63102 8.25856C5.12522 8.41486 4.65831 8.49301 4.1136 8.49301H4.0747L4.03578 8.45394ZM2.09038 3.68667H5.82556C5.82556 3.37407 5.74773 3.06146 5.5921 2.78793C5.43647 2.51439 5.24194 2.31902 4.96958 2.16271C4.69723 2.00641 4.38596 1.92826 3.99688 1.92826C3.6078 1.92826 3.21872 2.00641 2.94636 2.16271C2.674 2.31902 2.47947 2.55347 2.32384 2.827C2.16821 3.10054 2.09039 3.37407 2.05148 3.68667H2.09038Z" fill="black"/>
</svg>
