<svg width="10" height="12" viewBox="0 0 10 12" fill="none" xmlns="http://www.w3.org/2000/svg">
<path d="M5.00773 11.4646C3.91831 11.4646 3.02342 11.2302 2.28417 10.8003C1.54492 10.3705 1.0002 9.70621 0.611117 8.9247C0.222036 8.1041 0.0664062 7.20535 0.0664062 6.1503C0.0664062 5.09525 0.260947 4.15743 0.650027 3.33684C1.03911 2.51624 1.58382 1.89102 2.32307 1.42211C3.06232 0.953201 3.95722 0.71875 5.00773 0.71875C6.05825 0.71875 6.48624 0.835978 7.10877 1.10951C7.69239 1.38304 8.19819 1.73472 8.58727 2.24271C8.97635 2.71162 9.20979 3.33684 9.32652 4.0402H7.53676C7.38113 3.53222 7.10876 3.14146 6.68078 2.86793C6.25279 2.59439 5.70807 2.43809 5.04663 2.43809C4.3852 2.43809 3.72377 2.59439 3.25687 2.94608C2.78997 3.29776 2.47871 3.72759 2.28417 4.27466C2.08963 4.82172 1.9729 5.40786 1.9729 6.03307C1.9729 6.65829 2.08963 7.28351 2.28417 7.83057C2.47871 8.37763 2.82887 8.84654 3.29577 9.19823C3.76267 9.54991 4.34629 9.70621 5.08554 9.70621C5.8248 9.70621 5.94152 9.62806 6.25278 9.51084C6.56405 9.39361 6.87532 9.19822 7.10877 8.96377C7.34222 8.72931 7.49784 8.41671 7.57566 8.1041H9.44325C9.32653 8.80747 9.05417 9.39361 8.66509 9.9016C8.27601 10.4096 7.7313 10.7613 7.10877 11.0348C6.48624 11.3083 5.7859 11.4256 5.00773 11.4256V11.4646Z" fill="black"/>
</svg>
