<svg width="8" height="9" viewBox="0 0 8 9" fill="none" xmlns="http://www.w3.org/2000/svg">
<path d="M4.05534 8.45394C3.23827 8.45394 2.57682 8.29764 1.9932 7.94595C1.40958 7.59427 0.981597 7.12536 0.709241 6.53922C0.397977 5.95308 0.28125 5.24971 0.28125 4.46819C0.28125 3.68667 0.436887 2.98331 0.748151 2.35809C1.05942 1.73288 1.4874 1.26397 2.03211 0.912285C2.61573 0.560602 3.27717 0.404297 4.09423 0.404297C4.9113 0.404297 5.18367 0.521526 5.61166 0.716906C6.03965 0.912285 6.42872 1.18582 6.73999 1.57657C7.05125 1.92826 7.2847 2.35809 7.44033 2.827C7.59596 3.29591 7.63487 3.8039 7.63487 4.35096V4.70265C7.63487 4.81988 7.63487 4.9371 7.59596 5.05433H2.14883C2.14883 5.40601 2.26556 5.71863 2.42119 5.99216C2.57683 6.26569 2.81028 6.50014 3.08263 6.69552C3.35499 6.8909 3.70516 6.92998 4.13314 6.92998C4.56113 6.92998 4.60005 6.92998 4.8335 6.85183C5.06695 6.77367 5.26149 6.69552 5.41712 6.5783C5.57275 6.46107 5.68947 6.26568 5.76729 6.10938H7.55706C7.44034 6.65644 7.20688 7.12535 6.85671 7.47704C6.50654 7.82872 6.11746 8.10225 5.61166 8.25856C5.10585 8.41486 4.63895 8.49301 4.09423 8.49301H4.05534V8.45394ZM2.07102 3.68667H5.8062C5.8062 3.37407 5.72838 3.06146 5.57275 2.78793C5.41712 2.51439 5.22257 2.31902 4.95022 2.16271C4.67786 2.00641 4.3666 1.92826 3.97751 1.92826C3.58843 1.92826 3.19935 2.00641 2.92699 2.16271C2.65464 2.31902 2.46011 2.55347 2.30447 2.827C2.14884 3.10054 2.07102 3.37407 2.07102 3.68667Z" fill="black"/>
</svg>
