<svg width="18" height="10" viewBox="0 0 18 10" fill="none" xmlns="http://www.w3.org/2000/svg">
<path fill-rule="evenodd" clip-rule="evenodd" d="M17.0998 0.694444C17.2259 0.302778 17.0998 0.0180554 16.542 0.0180554H14.6872C14.2194 0.0180554 14.0033 0.267361 13.8772 0.534028C13.8772 0.534028 12.9231 2.81181 11.5907 4.28854C11.1587 4.71562 10.9607 4.85799 10.7266 4.85799C10.6005 4.85799 10.4383 4.71562 10.4383 4.32431V0.676042C10.4383 0.213542 10.2945 0 9.89818 0H6.98126C6.69297 0 6.51305 0.213542 6.51305 0.427083C6.51305 0.871875 7.17924 0.978819 7.25113 2.22431V4.93056C7.25113 5.51771 7.14488 5.625 6.90901 5.625C6.27895 5.625 4.74859 3.32951 3.83059 0.713889C3.65209 0.195833 3.47075 0 3.00255 0H1.13006C0.589958 0 0.5 0.248958 0.5 0.515972C0.5 0.996528 1.13006 3.41632 3.43463 6.6191C4.96498 8.8066 7.14347 9.98229 9.10591 9.98229C10.2945 9.98229 10.4383 9.71528 10.4383 9.27049V7.61562C10.4383 7.08194 10.5463 6.99306 10.9246 6.99306C11.1944 6.99306 11.6807 7.13507 12.779 8.18507C14.0391 9.43056 14.2551 10 14.9575 10H16.8119C17.352 10 17.6041 9.73299 17.46 9.21701C17.2981 8.70104 16.6858 7.95382 15.8935 7.06424C15.4614 6.56632 14.8133 6.01458 14.6153 5.74757C14.3455 5.39167 14.4174 5.24931 14.6153 4.92917C14.5973 4.92917 16.8661 1.76181 17.0998 0.693056" fill="white"/>
</svg>
