<svg width="83" height="84" viewBox="0 0 83 84" fill="none" xmlns="http://www.w3.org/2000/svg">
<path d="M0.264853 -0.154297L0.0703125 82.8821L82.5943 83.0774L82.7888 0.0410828L0.264853 -0.154297ZM63.0624 26.222C62.5177 26.3783 60.9225 26.6909 60.9225 26.6909L60.8447 58.5378H70.027V68.2677H50.145C50.145 68.2286 50.2228 27.0426 50.2228 27.0426H33.4145C33.4145 27.0035 33.2978 50.5663 33.2978 50.5663C33.2978 52.3638 33.0254 54.1612 32.5196 55.9197C31.0411 60.9605 27.5005 65.1807 22.8315 67.5252C21.353 68.2677 19.7578 68.8147 18.0847 69.1664C16.295 69.5181 14.4274 69.5962 12.5598 69.4009V59.5537C16.4506 59.9836 20.3025 57.8344 21.9366 54.2785C22.3646 53.4188 22.8704 52.2856 22.8315 50.5663V26.769C18.824 27.6678 15.867 30.9501 13.9994 34.2716L5.24508 29.2699C6.21779 27.4724 7.96865 24.5808 9.13589 23.2131C11.9373 20.0089 15.4001 17.8206 18.2793 17.0782C19.2909 16.8047 21.4697 16.3748 23.2984 16.3748C31.0411 16.3748 57.4597 16.2967 57.4597 16.2967C61.7785 16.2967 65.6693 14.0303 67.7703 10.279L76.3301 15.3198C73.6065 20.7122 68.7819 24.698 62.9846 26.261H63.0624V26.222Z" fill="#3AAA35"/>
</svg>
