<svg width="9" height="12" viewBox="0 0 9 12" fill="none" xmlns="http://www.w3.org/2000/svg">
<path d="M0.66391 11.406V0.894531H4.9438C5.41069 0.894531 5.87759 0.933602 6.26667 1.01175C6.65575 1.08991 7.04483 1.24621 7.31719 1.44159C7.62845 1.63697 7.8619 1.91051 8.01753 2.26219C8.17316 2.61387 8.25098 3.0437 8.25098 3.55169C8.25098 4.05968 8.13426 4.45043 7.93972 4.84119C7.74518 5.23195 7.39501 5.54456 6.96702 5.73994C7.55064 5.89625 7.97863 6.16977 8.28989 6.59961C8.60115 7.02944 8.75679 7.57651 8.75679 8.27988C8.75679 8.98325 8.64006 9.374 8.40661 9.80384C8.17316 10.1946 7.8619 10.5072 7.47282 10.7417C7.08374 10.9761 6.65575 11.1324 6.14995 11.2106C5.64414 11.2887 5.09943 11.3669 4.55472 11.3669H0.625L0.66391 11.406ZM2.49259 5.31011H4.438C4.74926 5.31011 5.02162 5.3101 5.25507 5.23195C5.48852 5.1538 5.72195 5.07565 5.87759 4.95843C6.03322 4.8412 6.18885 4.68489 6.30558 4.48951C6.4223 4.29413 6.46121 4.09876 6.46121 3.82523C6.46121 3.55169 6.3834 3.23909 6.22777 3.04371C6.07214 2.8874 5.87759 2.73109 5.60524 2.69201C5.33288 2.65294 5.06052 2.61387 4.71035 2.61387H2.49259V5.31011ZM2.49259 9.68662H4.67145C4.9438 9.68662 5.21615 9.68661 5.48851 9.64754C5.76086 9.60846 5.99432 9.53031 6.22777 9.45216C6.46122 9.37401 6.61684 9.2177 6.73357 9.02232C6.85029 8.82694 6.92811 8.59249 6.92811 8.27988C6.92811 7.96727 6.8892 7.77189 6.77248 7.57651C6.65575 7.38113 6.53903 7.26391 6.3834 7.14668C6.22777 7.02945 5.99432 6.9513 5.76087 6.91222C5.52742 6.87315 5.29397 6.83407 5.02162 6.83407H2.49259V9.68662Z" fill="black"/>
</svg>
