<svg width="9" height="9" viewBox="0 0 9 9" fill="none" xmlns="http://www.w3.org/2000/svg">
<path d="M4.30503 8.48323C3.52687 8.48323 2.82651 8.32693 2.24289 8.01432C1.65927 7.70171 1.23129 7.2328 0.920026 6.60759C0.608762 6.02145 0.453125 5.27901 0.453125 4.49749C0.453125 3.71597 0.608762 2.97353 0.920026 2.34831C1.23129 1.7231 1.65927 1.29326 2.24289 0.941576C2.82651 0.589893 3.48796 0.433594 4.30503 0.433594C5.1221 0.433594 5.78352 0.589893 6.32823 0.941576C6.91185 1.29326 7.33985 1.76217 7.65111 2.34831C7.96238 2.93445 8.11802 3.67689 8.11802 4.49749C8.11802 5.31808 7.96238 5.98237 7.65111 6.60759C7.33985 7.2328 6.91185 7.66264 6.32823 7.97524C5.74461 8.28785 5.08318 8.44416 4.26611 8.44416L4.30503 8.48323ZM4.30503 6.84204C4.81084 6.84204 5.19991 6.72481 5.51117 6.52943C5.82244 6.33405 6.01698 6.02145 6.17261 5.66977C6.28934 5.31808 6.36715 4.92732 6.36715 4.49749C6.36715 4.06765 6.28934 3.67689 6.17261 3.32521C6.01698 2.97353 5.82244 2.66091 5.51117 2.42646C5.19991 2.192 4.81084 2.07478 4.30503 2.07478C3.79923 2.07478 3.41013 2.192 3.09887 2.42646C2.7876 2.66091 2.59306 2.93445 2.43743 3.32521C2.28179 3.71597 2.24289 4.06765 2.24289 4.49749C2.24289 4.92732 2.3207 5.31808 2.43743 5.66977C2.55415 6.02145 2.7876 6.29497 3.09887 6.52943C3.41013 6.72481 3.79923 6.84204 4.30503 6.84204Z" fill="black"/>
</svg>
