<svg width="13" height="13" viewBox="0 0 13 13" fill="none" xmlns="http://www.w3.org/2000/svg">
<path d="M12.3319 9.31667V11.0667C12.3325 11.2291 12.2993 11.3899 12.2342 11.5388C12.1691 11.6876 12.0736 11.8213 11.9539 11.9311C11.8342 12.0409 11.6929 12.1245 11.539 12.1766C11.3851 12.2286 11.222 12.248 11.0602 12.2333C9.26519 12.0383 7.54095 11.4249 6.02604 10.4425C4.6166 9.54689 3.42165 8.35194 2.52604 6.9425C1.54019 5.42071 0.926679 3.68808 0.735203 1.885C0.720626 1.72369 0.739797 1.56111 0.791495 1.40762C0.843194 1.25412 0.926286 1.11307 1.03548 0.99345C1.14468 0.873827 1.27759 0.778252 1.42575 0.712809C1.57391 0.647366 1.73407 0.61349 1.89604 0.613338H3.64604C3.92913 0.610552 4.20358 0.7108 4.41823 0.895399C4.63288 1.08 4.77308 1.33635 4.8127 1.61667C4.88657 2.17671 5.02355 2.7266 5.22104 3.25584C5.29952 3.46463 5.31651 3.69154 5.26998 3.90968C5.22346 4.12783 5.11537 4.32807 4.95854 4.48667L4.2177 5.2275C5.04811 6.68791 6.2573 7.8971 7.7177 8.7275L8.45854 7.98667C8.61714 7.82983 8.81738 7.72175 9.03552 7.67523C9.25367 7.6287 9.48058 7.64569 9.68937 7.72417C10.2186 7.92166 10.7685 8.05864 11.3285 8.1325C11.6119 8.17248 11.8707 8.31521 12.0557 8.53354C12.2407 8.75188 12.339 9.03059 12.3319 9.31667Z" stroke="white" stroke-linecap="round" stroke-linejoin="round"/>
</svg>
