<svg width="8" height="9" viewBox="0 0 8 9" fill="none" xmlns="http://www.w3.org/2000/svg">
<path d="M0.09375 8.40308V6.76188C0.327198 6.76188 0.482816 6.72281 0.638448 6.60558C0.794081 6.48835 0.949713 6.37112 1.02753 6.17574C1.14425 5.94129 1.26098 5.66775 1.29989 5.35515C1.37771 5.00346 1.3777 4.69087 1.41661 4.33918C1.41661 3.90935 1.41661 3.44043 1.49443 3.01059C1.57225 2.58076 1.49443 2.11185 1.49443 1.72109V0.587891H7.33064V8.40308H5.54088V2.19001H3.16747V3.24505C3.16747 3.63581 3.16747 3.9875 3.16747 4.33918C3.16747 4.72994 3.16748 5.08162 3.05075 5.4333C3.05075 5.82406 2.93403 6.21482 2.85621 6.60558C2.7784 6.99634 2.58385 7.34803 2.38931 7.66064C2.15586 7.97324 1.8446 8.16861 1.49443 8.28584C1.14426 8.40307 0.677371 8.44216 0.09375 8.44216V8.40308Z" fill="black"/>
</svg>
