<svg width="23" height="15" viewBox="0 0 23 15" fill="none" xmlns="http://www.w3.org/2000/svg">
<path fill-rule="evenodd" clip-rule="evenodd" d="M22.2203 1.63379C22.3872 1.10504 22.2203 0.720664 21.482 0.720664H19.0272C18.408 0.720664 18.122 1.05723 17.9552 1.41723C17.9552 1.41723 16.6923 4.49223 14.9289 6.48582C14.357 7.06238 14.095 7.25457 13.7852 7.25457C13.6183 7.25457 13.4036 7.06238 13.4036 6.5341V1.60895C13.4036 0.98457 13.2133 0.696289 12.6887 0.696289H8.82812C8.44656 0.696289 8.20844 0.98457 8.20844 1.27285C8.20844 1.87332 9.09016 2.0177 9.18531 3.6991V7.35254C9.18531 8.1452 9.04469 8.29004 8.7325 8.29004C7.89859 8.29004 5.87313 5.19113 4.65812 1.66004C4.42188 0.960664 4.18188 0.696289 3.56219 0.696289H1.08391C0.369063 0.696289 0.25 1.03238 0.25 1.39285C0.25 2.0416 1.08391 5.30832 4.13406 9.63207C6.15953 12.5852 9.04281 14.1724 11.6402 14.1724C13.2133 14.1724 13.4036 13.8119 13.4036 13.2114V10.9774C13.4036 10.2569 13.5466 10.1369 14.0472 10.1369C14.4044 10.1369 15.048 10.3286 16.5016 11.7461C18.1694 13.4275 18.4553 14.1963 19.3848 14.1963H21.8392C22.5541 14.1963 22.8878 13.8358 22.697 13.1393C22.4828 12.4427 21.6723 11.4339 20.6238 10.233C20.0519 9.56082 19.1941 8.81598 18.932 8.45551C18.5748 7.97504 18.67 7.78285 18.932 7.35066C18.9081 7.35066 21.9109 3.07473 22.2203 1.63191" fill="white"/>
</svg>
