<svg width="9" height="9" viewBox="0 0 9 9" fill="none" xmlns="http://www.w3.org/2000/svg">
<path d="M4.55141 8.45394C3.73434 8.45394 3.0729 8.29764 2.48928 7.94595C1.90566 7.59427 1.47768 7.12536 1.20532 6.53922C0.894058 5.95308 0.777344 5.24971 0.777344 4.46819C0.777344 3.68667 0.932957 2.98331 1.24422 2.35809C1.55549 1.73288 1.98349 1.26397 2.52821 0.912285C3.11183 0.560602 3.77326 0.404297 4.59033 0.404297C5.4074 0.404297 5.67974 0.521526 6.10773 0.716906C6.53572 0.912285 6.92481 1.18582 7.23607 1.57657C7.54733 1.92826 7.78078 2.35809 7.93641 2.827C8.09204 3.29591 8.13095 3.8039 8.13095 4.35096V4.70265C8.13095 4.81988 8.13095 4.9371 8.13095 5.05433H2.68382C2.68382 5.40601 2.80055 5.71863 2.95619 5.99216C3.11182 6.26569 3.34527 6.50014 3.61763 6.69552C3.88998 6.8909 4.24016 6.92998 4.66815 6.92998C5.09614 6.92998 5.13504 6.92998 5.36849 6.85183C5.60194 6.77367 5.79648 6.69552 5.95211 6.5783C6.10774 6.46107 6.22445 6.26568 6.30227 6.10938H8.09205C7.97533 6.65644 7.74188 7.12535 7.39171 7.47704C7.04154 7.82872 6.65245 8.10225 6.14665 8.25856C5.64085 8.41486 5.17394 8.49301 4.62923 8.49301H4.59033L4.55141 8.45394ZM2.606 3.68667H6.34119C6.34119 3.37407 6.26336 3.06146 6.10773 2.78793C5.9521 2.51439 5.75756 2.31902 5.48521 2.16271C5.21285 2.00641 4.90159 1.92826 4.51251 1.92826C4.12343 1.92826 3.73434 2.00641 3.46198 2.16271C3.18963 2.31902 2.9951 2.55347 2.83947 2.827C2.68383 3.10054 2.60601 3.37407 2.5671 3.68667H2.606Z" fill="black"/>
</svg>
