<svg width="9" height="9" viewBox="0 0 9 9" fill="none" xmlns="http://www.w3.org/2000/svg">
<path d="M4.57876 8.48323C3.76169 8.48323 3.10026 8.32693 2.51664 7.97524C1.93302 7.62356 1.50503 7.15465 1.23268 6.56851C0.921414 5.98237 0.804688 5.27901 0.804688 4.49749C0.804688 3.71597 0.960313 3.01261 1.27158 2.38739C1.58284 1.76218 2.01084 1.29326 2.55555 0.941576C3.13917 0.589893 3.8006 0.433594 4.61767 0.433594C5.43474 0.433594 5.7071 0.550817 6.13508 0.746196C6.56307 0.941576 6.95216 1.21511 7.26343 1.60587C7.57469 1.95756 7.80813 2.38738 7.96377 2.85629C8.1194 3.32521 8.15831 3.83319 8.15831 4.38025V4.73195C8.15831 4.84917 8.1583 4.9664 8.1194 5.08363H2.67227C2.67227 5.43531 2.789 5.74792 2.94463 6.02145C3.10026 6.29498 3.3337 6.52943 3.60606 6.72481C3.87842 6.92019 4.22859 6.95927 4.65658 6.95927C5.08457 6.95927 5.12347 6.95927 5.35692 6.88112C5.59037 6.80297 5.78491 6.72481 5.94054 6.60759C6.09618 6.49036 6.21291 6.29497 6.29073 6.13867H8.08049C7.96376 6.68573 7.73032 7.15464 7.38015 7.50633C7.02997 7.85801 6.64089 8.13154 6.13508 8.28785C5.62928 8.44415 5.16238 8.5223 4.61767 8.5223H4.57876V8.48323ZM2.63336 3.71597H6.36853C6.36853 3.40336 6.29072 3.09075 6.13508 2.81722C5.97945 2.54368 5.78492 2.34831 5.51256 2.19201C5.24021 2.03571 4.92894 1.95755 4.53986 1.95755C4.15078 1.95755 3.7617 2.03571 3.48934 2.19201C3.21698 2.34831 3.02244 2.58276 2.86681 2.85629C2.71118 3.12983 2.63336 3.40336 2.63336 3.71597Z" fill="black"/>
</svg>
