<svg width="9" height="9" viewBox="0 0 9 9" fill="none" xmlns="http://www.w3.org/2000/svg">
<path d="M4.82063 8.48323C4.04247 8.48323 3.34213 8.32693 2.75851 8.01432C2.17489 7.70171 1.74692 7.2328 1.43565 6.60759C1.12439 5.98237 0.96875 5.27901 0.96875 4.49749C0.96875 3.71597 1.12439 2.97353 1.43565 2.34831C1.74692 1.7231 2.17489 1.29326 2.75851 0.941576C3.34213 0.589893 4.00356 0.433594 4.82063 0.433594C5.6377 0.433594 6.29914 0.589893 6.84386 0.941576C7.42748 1.29326 7.85547 1.76217 8.16674 2.34831C8.478 2.93445 8.63364 3.67689 8.63364 4.49749C8.63364 5.31808 8.478 5.98237 8.16674 6.60759C7.85547 7.2328 7.42748 7.66264 6.84386 7.97524C6.26024 8.28785 5.5988 8.44416 4.78173 8.44416L4.82063 8.48323ZM4.82063 6.84204C5.32644 6.84204 5.71553 6.72481 6.0268 6.52943C6.33806 6.33405 6.53261 6.02145 6.68824 5.66977C6.80496 5.31808 6.88278 4.92732 6.88278 4.49749C6.88278 4.06765 6.80496 3.67689 6.68824 3.32521C6.53261 2.97353 6.33806 2.66091 6.0268 2.42646C5.71553 2.192 5.32644 2.07478 4.82063 2.07478C4.31483 2.07478 3.92576 2.192 3.61449 2.42646C3.30323 2.66091 3.10868 2.93445 2.95305 3.32521C2.79742 3.71597 2.75851 4.06765 2.75851 4.49749C2.75851 4.92732 2.83633 5.31808 2.95305 5.66977C3.06978 6.02145 3.30323 6.29497 3.61449 6.52943C3.92576 6.72481 4.31483 6.84204 4.82063 6.84204Z" fill="black"/>
</svg>
